<?xml version="1.0" encoding="UTF-8"?>
<svg width="58px" height="54px" viewBox="0 0 58 54" version="1.1" xmlns="http://www.w3.org/2000/svg" xmlns:xlink="http://www.w3.org/1999/xlink">
    <g id="Page-1" stroke="none" stroke-width="1" fill="none" fill-rule="evenodd">
        <g id="Group" fill="#ffffff">
            <polygon id="Shape" points="29.041 38.23 1.482 20.776 3.088 18.242 29.041 34.68 54.921 18.291 56.526 20.825"></polygon>
            <polygon id="Shape" points="18.414 10.035 16.881 7.457 29.044 0.22 41.204 7.457 39.669 10.035 29.044 3.711"></polygon>
            <path d="M53.6,53.78 L4.482,53.78 C2.484,53.78 0.859,52.155 0.859,50.157 L0.776,17.04 L9.901,11.61 L11.434,14.188 L3.78,18.743 L3.859,50.154 C3.859,50.501 4.138,50.78 4.482,50.78 L53.6,50.78 C53.944,50.78 54.224,50.501 54.224,50.157 L54.224,18.74 L46.64,14.183 L48.185,11.612 L57.224,17.043 L57.224,50.158 C57.224,52.155 55.598,53.78 53.6,53.78 L53.6,53.78 Z" id="Shape"></path>
            <polygon id="Shape" points="48.914 24.819 45.914 24.819 45.914 10.247 12.168 10.247 12.168 24.819 9.168 24.819 9.168 7.247 48.914 7.247"></polygon>
        </g>
    </g>
</svg>
