<?xml version="1.0" encoding="UTF-8"?>
<svg width="50px" height="90px" viewBox="0 0 50 90" version="1.1" xmlns="http://www.w3.org/2000/svg" xmlns:xlink="http://www.w3.org/1999/xlink">
    <!-- Generator: Sketch 39.1 (31720) - http://www.bohemiancoding.com/sketch -->
    <title>Untitled</title>
    <desc>Created with Sketch.</desc>
    <defs></defs>
    <g id="Page-1" stroke="none" stroke-width="1" fill="none" fill-rule="evenodd">
        <path d="M48,0 L2,0 C0.9,0 0,0.9 0,2 L0,88 C0,89.1 0.9,90 2,90 L48,90 C49.1,90 50,89.1 50,88 L50,2 C50,0.9 49.1,0 48,0 L48,0 Z M25,86 L25,86 C23.3,86 22,84.7 22,83 L22,83 C22,81.3 23.3,80 25,80 L25,80 C26.7,80 28,81.3 28,83 L28,83 C28,84.7 26.7,86 25,86 L25,86 Z M45,76 L5,76 C4.4,76 4,75.6 4,75 L4,5 C4,4.4 4.4,4 5,4 L45,4 C45.6,4 46,4.4 46,5 L46,75 C46,75.6 45.6,76 45,76 L45,76 Z" id="Shape" fill="#ffffff"></path>
    </g>
</svg>
